Adsworth-8PTG1XTdb.ufo
<glyph name="exclam" format="2">
  <advance width="758"/>
  <unicode hex="0021"/>
  <outline>
    <contour>
      <point x="104" y="574" type="line"/>
      <point x="74" y="1500" type="line"/>
      <point x="670" y="1500" type="line"/>
      <point x="640" y="574" type="line"/>
    </contour>
    <contour>
      <point x="376" y="-32" type="line" smooth="yes"/>
      <point x="527" y="-32"/>
      <point x="702" y="116"/>
      <point x="702" y="225" type="qcurve" smooth="yes"/>
      <point x="702" y="241" type="line" smooth="yes"/>
      <point x="702" y="349"/>
      <point x="530" y="500"/>
      <point x="376" y="500" type="qcurve" smooth="yes"/>
      <point x="371" y="500" type="line" smooth="yes"/>
      <point x="227" y="500"/>
      <point x="60" y="349"/>
      <point x="60" y="241" type="qcurve" smooth="yes"/>
      <point x="60" y="225" type="line" smooth="yes"/>
      <point x="60" y="113"/>
      <point x="224" y="-32"/>
      <point x="371" y="-32" type="qcurve" smooth="yes"/>
    </contour>
  </outline>
</glyph>
<glyph name="quotedbl" format="2">
  <advance width="1134"/>
  <unicode hex="0022"/>
  <outline>
    <contour>
      <point x="34" y="762" type="line"/>
      <point x="34" y="1500" type="line"/>
      <point x="507" y="1500" type="line"/>
      <point x="507" y="762" type="line"/>
    </contour>
    <contour>
      <point x="627" y="762" type="line"/>
      <point x="627" y="1500" type="line"/>
      <point x="1100" y="1500" type="line"/>
      <point x="1100" y="762" type="line"/>
    </contour>
  </outline>
</glyph>
<glyph name="numbersign" format="2">
  <advance width="1444"/>
  <unicode hex="0023"/>
  <outline>
    <contour>
      <point x="108" y="0" type="line"/>
      <point x="278" y="1500" type="line"/>
      <point x="728" y="1500" type="line"/>
      <point x="558" y="0" type="line"/>
    </contour>
    <contour>
      <point x="1342" y="210" type="line"/>
      <point x="22" y="210" type="line"/>
      <point x="22" y="710" type="line"/>
      <point x="1342" y="710" type="line"/>
    </contour>
    <contour>
      <point x="1412" y="805" type="line"/>
      <point x="72" y="805" type="line"/>
      <point x="82" y="1305" type="line"/>
      <point x="1422" y="1305" type="line"/>
    </contour>
    <contour>
      <point x="738" y="0" type="line"/>
      <point x="908" y="1500" type="line"/>
      <point x="1358" y="1500" type="line"/>
      <point x="1188" y="0" type="line"/>
    </contour>
  </outline>
</glyph>
<glyph name="parenleft" format="2">
  <advance width="748"/>
  <unicode hex="0028"/>
  <outline>
    <contour>
      <point x="425.0" y="-383.0" type="line"/>
      <point x="17" y="95.0"/>
      <point x="18" y="1133.0"/>
      <point x="409" y="1607.0" type="qcurve"/>
      <point x="793" y="1330.0" type="line"/>
      <point x="526" y="948"/>
      <point x="525" y="278"/>
      <point x="811" y="-130.0" type="qcurve"/>
    </contour>
  </outline>
</glyph>
<glyph name="parenright" format="2">
  <advance width="748"/>
  <unicode hex="0029"/>
  <outline>
    <contour>
      <point x="323.0" y="-383.0" type="qcurve"/>
      <point x="-63.0" y="-130.0" type="line"/>
      <point x="206" y="260"/>
      <point x="203" y="949"/>
      <point x="-45.0" y="1330.0" type="qcurve"/>
      <point x="339.0" y="1607.0" type="line"/>
      <point x="730.0" y="1133.0"/>
      <point x="731.0" y="95.0"/>
    </contour>
  </outline>
</glyph>
<glyph name="asterisk" format="2">
  <advance width="1217"/>
  <unicode hex="002A"/>
  <outline>
    <contour>
      <point x="608.0" y="737" type="line"/>
      <point x="501" y="431" type="line"/>
      <point x="93" y="733" type="line"/>
      <point x="303" y="929" type="line"/>
      <point x="23" y="932" type="line"/>
      <point x="187" y="1430" type="line"/>
      <point x="404" y="1217" type="line"/>
      <point x="372" y="1554.0" type="line"/>
      <point x="844" y="1554.0" type="line"/>
      <point x="809" y="1217" type="line"/>
      <point x="1030" y="1427" type="line"/>
      <point x="1194" y="933" type="line"/>
      <point x="913" y="929" type="line"/>
      <point x="1126" y="733" type="line"/>
      <point x="714" y="431" type="line"/>
    </contour>
  </outline>
</glyph>
<glyph name="comma" format="2">
  <advance width="760"/>
  <unicode hex="002C"/>
  <outline>
    <contour>
      <point x="55.0" y="-164" type="line"/>
      <point x="139" y="275" type="line" smooth="yes"/>
      <point x="155" y="361"/>
      <point x="289.0" y="505.0"/>
      <point x="398" y="505" type="qcurve" smooth="yes"/>
      <point x="411" y="505.0" type="line" smooth="yes"/>
      <point x="519.0" y="505.0"/>
      <point x="648.0" y="381.0"/>
      <point x="648" y="298.0" type="qcurve" smooth="yes"/>
      <point x="648" y="279" type="line" smooth="yes"/>
      <point x="648" y="213"/>
      <point x="379" y="-134"/>
      <point x="265" y="-260.0" type="qcurve"/>
    </contour>
  </outline>
</glyph>
<glyph name="three" format="2">
  <advance width="1048"/>
  <unicode hex="0033"/>
  <outline>
    <contour>
      <point x="434" y="567.0" type="qcurve" smooth="yes"/>
      <point x="240" y="568" type="line"/>
      <point x="240" y="954" type="line"/>
      <point x="393" y="957" type="line" smooth="yes"/>
      <point x="458" y="958"/>
      <point x="501" y="991"/>
      <point x="501" y="1045.0" type="qcurve" smooth="yes"/>
      <point x="501" y="1072.0" type="line" smooth="yes"/>
      <point x="501.0" y="1097.0"/>
      <point x="478.0" y="1125.0"/>
      <point x="459" y="1125.0" type="qcurve" smooth="yes"/>
      <point x="452" y="1125.0" type="line" smooth="yes"/>
      <point x="432" y="1125"/>
      <point x="417" y="1097"/>
      <point x="417" y="1073.0" type="qcurve" smooth="yes"/>
      <point x="418" y="1021.0" type="line"/>
      <point x="9" y="1045.0" type="line"/>
      <point x="9" y="1147.0" type="line" smooth="yes"/>
      <point x="9" y="1311"/>
      <point x="270.0" y="1524.0"/>
      <point x="479" y="1524.0" type="qcurve" smooth="yes"/>
      <point x="499" y="1524.0" type="line" smooth="yes"/>
      <point x="723.0" y="1524.0"/>
      <point x="1009" y="1319"/>
      <point x="1009" y="1174.0" type="qcurve" smooth="yes"/>
      <point x="1009" y="1137.0" type="line" smooth="yes"/>
      <point x="1009.0" y="1013.0"/>
      <point x="842" y="833.0"/>
      <point x="780" y="812.0" type="qcurve"/>
      <point x="875" y="787.0"/>
      <point x="1045" y="595"/>
      <point x="1045" y="430.0" type="qcurve" smooth="yes"/>
      <point x="1045" y="420.0" type="line" smooth="yes"/>
      <point x="1045" y="241"/>
      <point x="752.0" y="-25"/>
      <point x="513" y="-25.0" type="qcurve" smooth="yes"/>
      <point x="507" y="-25.0" type="line" smooth="yes"/>
      <point x="283.0" y="-25"/>
      <point x="-21" y="180"/>
      <point x="-22" y="337.0" type="qcurve" smooth="yes"/>
      <point x="-24" y="515.0" type="line"/>
      <point x="416" y="515.0" type="line"/>
      <point x="416.0" y="367" type="line" smooth="yes"/>
      <point x="416.0" y="336.0"/>
      <point x="432.0" y="316.0"/>
      <point x="447.0" y="316" type="qcurve" smooth="yes"/>
      <point x="457" y="316.0" type="line" smooth="yes"/>
      <point x="480" y="316.0"/>
      <point x="505.0" y="352"/>
      <point x="505.0" y="402" type="qcurve" smooth="yes"/>
      <point x="505" y="497.0" type="line" smooth="yes"/>
      <point x="505.0" y="544.0"/>
      <point x="467" y="569"/>
    </contour>
  </outline>
</glyph>
<glyph name="six" format="2">
  <advance width="1187"/>
  <unicode hex="0036"/>
  <outline>
    <contour>
      <point x="534" y="501.0" type="qcurve" smooth="yes"/>
      <point x="536.0" y="406.0" type="line" smooth="yes"/>
      <point x="537" y="369"/>
      <point x="566" y="317"/>
      <point x="600.0" y="317.0" type="qcurve" smooth="yes"/>
      <point x="630" y="317" type="line" smooth="yes"/>
      <point x="649" y="317"/>
      <point x="680.0" y="350.0"/>
      <point x="680.0" y="396" type="qcurve" smooth="yes"/>
      <point x="680.0" y="558" type="line" smooth="yes"/>
      <point x="680" y="597"/>
      <point x="650" y="634.0"/>
      <point x="627" y="634.0" type="qcurve" smooth="yes"/>
      <point x="613" y="634.0" type="line" smooth="yes"/>
      <point x="577" y="634"/>
      <point x="534.0" y="567"/>
      <point x="534" y="517" type="qcurve" smooth="yes"/>
      <point x="534.0" y="495" type="line"/>
      <point x="392" y="505.0" type="line"/>
      <point x="392" y="519.0" type="line" smooth="yes"/>
      <point x="392" y="708.0"/>
      <point x="563" y="960.0"/>
      <point x="735" y="960.0" type="qcurve" smooth="yes"/>
      <point x="741" y="960.0" type="line" smooth="yes"/>
      <point x="935" y="960.0"/>
      <point x="1167" y="695.0"/>
      <point x="1167" y="489.0" type="qcurve" smooth="yes"/>
      <point x="1167" y="454.0" type="line" smooth="yes"/>
      <point x="1167" y="255.0"/>
      <point x="857" y="-25.0"/>
      <point x="617" y="-25.0" type="qcurve" smooth="yes"/>
      <point x="610" y="-25.0" type="line" smooth="yes"/>
      <point x="354" y="-25.0"/>
      <point x="46" y="268"/>
      <point x="46" y="562" type="qcurve" smooth="yes"/>
      <point x="46" y="647" type="line" smooth="yes"/>
      <point x="46" y="1070"/>
      <point x="594.0" y="1531"/>
      <point x="922.0" y="1540" type="qcurve" smooth="yes"/>
      <point x="959" y="1540" type="line"/>
      <point x="959" y="1095" type="line"/>
      <point x="927" y="1095.0" type="line" smooth="yes"/>
      <point x="666" y="1095.0"/>
      <point x="529" y="734"/>
    </contour>
  </outline>
</glyph>
<glyph name="colon" format="2">
  <advance width="760"/>
  <unicode hex="003A"/>
  <outline>
    <contour>
      <point x="377" y="-32.0" type="line" smooth="yes"/>
      <point x="498" y="-32.0"/>
      <point x="650" y="111"/>
      <point x="650" y="215" type="qcurve" smooth="yes"/>
      <point x="650" y="230" type="line" smooth="yes"/>
      <point x="650" y="334"/>
      <point x="501" y="480"/>
      <point x="377" y="480" type="qcurve" smooth="yes"/>
      <point x="372" y="480" type="line" smooth="yes"/>
      <point x="258" y="480"/>
      <point x="113" y="334"/>
      <point x="113" y="230" type="qcurve" smooth="yes"/>
      <point x="113" y="215" type="line" smooth="yes"/>
      <point x="113" y="108"/>
      <point x="256" y="-32.0"/>
      <point x="372" y="-32.0" type="qcurve" smooth="yes"/>
    </contour>
    <contour>
      <point x="375" y="568" type="line" smooth="yes"/>
      <point x="496" y="568"/>
      <point x="649" y="711"/>
      <point x="649" y="816" type="qcurve" smooth="yes"/>
      <point x="649" y="831" type="line" smooth="yes"/>
      <point x="649" y="935"/>
      <point x="499" y="1080.0"/>
      <point x="375" y="1080.0" type="qcurve" smooth="yes"/>
      <point x="370" y="1080.0" type="line" smooth="yes"/>
      <point x="256" y="1080.0"/>
      <point x="111" y="935"/>
      <point x="111" y="831" type="qcurve" smooth="yes"/>
      <point x="111" y="816" type="line" smooth="yes"/>
      <point x="111" y="708"/>
      <point x="254" y="568"/>
      <point x="370" y="568" type="qcurve" smooth="yes"/>
    </contour>
  </outline>
</glyph>
<glyph name="semicolon" format="2">
  <advance width="760"/>
  <unicode hex="003B"/>
  <outline>
    <contour>
      <point x="375" y="568" type="line" smooth="yes"/>
      <point x="496" y="568"/>
      <point x="649" y="711"/>
      <point x="649" y="816" type="qcurve" smooth="yes"/>
      <point x="649" y="831" type="line" smooth="yes"/>
      <point x="649" y="935"/>
      <point x="499" y="1080.0"/>
      <point x="375" y="1080.0" type="qcurve" smooth="yes"/>
      <point x="370" y="1080.0" type="line" smooth="yes"/>
      <point x="256" y="1080.0"/>
      <point x="111" y="935"/>
      <point x="111" y="831" type="qcurve" smooth="yes"/>
      <point x="111" y="816" type="line" smooth="yes"/>
      <point x="111" y="708"/>
      <point x="254" y="568"/>
      <point x="370" y="568" type="qcurve" smooth="yes"/>
    </contour>
    <contour>
      <point x="45.0" y="-165" type="line"/>
      <point x="119.0" y="270" type="line" smooth="yes"/>
      <point x="134.0" y="355"/>
      <point x="276.0" y="498"/>
      <point x="383.0" y="498" type="qcurve" smooth="yes"/>
      <point x="396.0" y="498.0" type="line" smooth="yes"/>
      <point x="509.0" y="498.0"/>
      <point x="638.0" y="366.0"/>
      <point x="638.0" y="284.0" type="qcurve" smooth="yes"/>
      <point x="638.0" y="265" type="line" smooth="yes"/>
      <point x="638.0" y="200"/>
      <point x="371.0" y="-135"/>
      <point x="252.0" y="-260.0" type="qcurve"/>
    </contour>
  </outline>
</glyph>
<glyph name="equal" format="2">
  <advance width="1500"/>
  <unicode hex="003D"/>
  <outline>
    <contour>
      <point x="1276.0" y="180.0" type="line"/>
      <point x="216.0" y="180.0" type="line"/>
      <point x="216.0" y="606" type="line"/>
      <point x="1276.0" y="606" type="line"/>
    </contour>
    <contour>
      <point x="1276.0" y="687" type="line"/>
      <point x="216.0" y="687" type="line"/>
      <point x="216.0" y="1114.0" type="line"/>
      <point x="1276.0" y="1114.0" type="line"/>
    </contour>
  </outline>
</glyph>
<glyph name="question" format="2">
  <advance width="1078"/>
  <unicode hex="003F"/>
  <outline>
    <contour>
      <point x="484" y="-32" type="line" smooth="yes"/>
      <point x="635" y="-32"/>
      <point x="810" y="116"/>
      <point x="810" y="225" type="qcurve" smooth="yes"/>
      <point x="810" y="241" type="line" smooth="yes"/>
      <point x="810" y="349"/>
      <point x="638" y="500"/>
      <point x="484" y="500" type="qcurve" smooth="yes"/>
      <point x="479" y="500" type="line" smooth="yes"/>
      <point x="335" y="500"/>
      <point x="168" y="349"/>
      <point x="168" y="241" type="qcurve" smooth="yes"/>
      <point x="168" y="225" type="line" smooth="yes"/>
      <point x="168" y="113"/>
      <point x="332" y="-32"/>
      <point x="479" y="-32" type="qcurve" smooth="yes"/>
    </contour>
    <contour>
      <point x="732" y="570" type="line"/>
      <point x="190" y="570" type="line"/>
      <point x="188" y="921.0" type="line"/>
      <point x="399" y="891.0"/>
      <point x="530" y="998"/>
      <point x="530" y="1051.0" type="qcurve" smooth="yes"/>
      <point x="530" y="1099.0" type="line" smooth="yes"/>
      <point x="530.0" y="1110.0"/>
      <point x="515.0" y="1136.0"/>
      <point x="495" y="1136.0" type="qcurve" smooth="yes"/>
      <point x="469" y="1136.0" type="line" smooth="yes"/>
      <point x="457.0" y="1136.0"/>
      <point x="443" y="1106"/>
      <point x="444" y="1098" type="qcurve" smooth="yes"/>
      <point x="445" y="997" type="line"/>
      <point x="-52" y="1000.0" type="line"/>
      <point x="-52" y="1149.0" type="line" smooth="yes"/>
      <point x="-52" y="1317"/>
      <point x="273" y="1538"/>
      <point x="534" y="1538.0" type="qcurve" smooth="yes"/>
      <point x="541.0" y="1538" type="line" smooth="yes"/>
      <point x="788" y="1538"/>
      <point x="1110.0" y="1337"/>
      <point x="1110.0" y="1121" type="qcurve" smooth="yes"/>
      <point x="1110.0" y="1099" type="line" smooth="yes"/>
      <point x="1110.0" y="899"/>
      <point x="896.0" y="673"/>
      <point x="731.0" y="672" type="qcurve"/>
    </contour>
  </outline>
</glyph>
<glyph name="at" format="2">
  <advance width="1931"/>
  <unicode hex="0040"/>
  <outline>
    <contour>
      <point x="1202" y="691" type="qcurve" smooth="yes"/>
      <point x="1197" y="662" type="line" smooth="yes"/>
      <point x="1165" y="475"/>
      <point x="953" y="251"/>
      <point x="793" y="251" type="qcurve" smooth="yes"/>
      <point x="787" y="251" type="line" smooth="yes"/>
      <point x="622" y="251"/>
      <point x="462" y="536"/>
      <point x="493" y="714" type="qcurve" smooth="yes"/>
      <point x="498" y="743" type="line" smooth="yes"/>
      <point x="529" y="925"/>
      <point x="759" y="1121"/>
      <point x="917" y="1121" type="qcurve" smooth="yes"/>
      <point x="924" y="1121" type="line" smooth="yes"/>
      <point x="1082" y="1121"/>
      <point x="1234" y="877"/>
    </contour>
    <contour>
      <point x="1026" y="665.0" type="line" smooth="yes"/>
      <point x="1045.0" y="760.0"/>
      <point x="1031" y="856.0"/>
      <point x="1001" y="856.0" type="qcurve" smooth="yes"/>
      <point x="999" y="856.0" type="line" smooth="yes"/>
      <point x="985" y="856.0"/>
      <point x="958" y="792.0"/>
      <point x="940" y="704.0" type="qcurve" smooth="yes"/>
      <point x="936" y="690.0" type="line" smooth="yes"/>
      <point x="915" y="600.0"/>
      <point x="910" y="496.0"/>
      <point x="947" y="496.0" type="qcurve" smooth="yes"/>
      <point x="949" y="496.0" type="line" smooth="yes"/>
      <point x="972" y="496.0"/>
      <point x="1010" y="566.0"/>
      <point x="1024" y="650.0" type="qcurve" smooth="yes"/>
    </contour>
    <contour>
      <point x="1075" y="673" type="qcurve" smooth="yes"/>
      <point x="1183" y="1113" type="line"/>
      <point x="1522" y="1113" type="line"/>
      <point x="1445" y="688" type="line" smooth="yes"/>
      <point x="1434" y="628"/>
      <point x="1473" y="521"/>
      <point x="1537" y="521.0" type="qcurve" smooth="yes"/>
      <point x="1606" y="521"/>
      <point x="1723" y="650"/>
      <point x="1723.0" y="789" type="qcurve" smooth="yes"/>
      <point x="1723.0" y="1011.0"/>
      <point x="1391.0" y="1302.0"/>
      <point x="989.0" y="1302" type="qcurve" smooth="yes"/>
      <point x="667" y="1302"/>
      <point x="287.0" y="933"/>
      <point x="287.0" y="662" type="qcurve" smooth="yes"/>
      <point x="287.0" y="372"/>
      <point x="702" y="47"/>
      <point x="973.0" y="47" type="qcurve" smooth="yes"/>
      <point x="1164.0" y="47"/>
      <point x="1439.0" y="159"/>
      <point x="1491.0" y="204" type="qcurve"/>
      <point x="1644" y="18.0" type="line"/>
      <point x="1530" y="-71.0"/>
      <point x="1190" y="-182.0"/>
      <point x="962" y="-182.0" type="qcurve" smooth="yes"/>
      <point x="590" y="-182.0"/>
      <point x="16" y="282.0"/>
      <point x="16" y="675.0" type="qcurve" smooth="yes"/>
      <point x="16" y="1057.0"/>
      <point x="570" y="1529.0"/>
      <point x="979" y="1529.0" type="qcurve" smooth="yes"/>
      <point x="1417" y="1529.0"/>
      <point x="1923" y="1130.0"/>
      <point x="1923" y="830.0" type="qcurve" smooth="yes"/>
      <point x="1923" y="578.0"/>
      <point x="1586" y="269"/>
      <point x="1329" y="269" type="qcurve" smooth="yes"/>
      <point x="1184" y="269"/>
      <point x="1032" y="497"/>
    </contour>
  </outline>
</glyph>
<glyph name="B" format="2">
  <advance width="1454"/>
  <unicode hex="0042"/>
  <outline>
    <contour>
      <point x="105" y="0" type="line"/>
      <point x="105" y="1500" type="line"/>
      <point x="686" y="1500" type="line"/>
      <point x="686" y="0" type="line"/>
    </contour>
    <contour>
      <point x="1073" y="811" type="line"/>
      <point x="1183" y="811"/>
      <point x="1437" y="628"/>
      <point x="1437" y="442" type="qcurve" smooth="yes"/>
      <point x="1437" y="415" type="line" smooth="yes"/>
      <point x="1437" y="235"/>
      <point x="1181.0" y="0.0"/>
      <point x="978" y="0" type="qcurve" smooth="yes"/>
      <point x="416" y="0" type="line"/>
      <point x="416" y="360.0" type="line"/>
      <point x="721" y="360.0" type="line" smooth="yes"/>
      <point x="811" y="360"/>
      <point x="881" y="410"/>
      <point x="881" y="473.0" type="qcurve" smooth="yes"/>
      <point x="881" y="501.0" type="line" smooth="yes"/>
      <point x="881" y="562"/>
      <point x="812" y="616"/>
      <point x="721" y="613.0" type="qcurve" smooth="yes"/>
      <point x="416" y="613.0" type="line"/>
      <point x="416" y="936.0" type="line"/>
      <point x="720" y="936.0" type="line" smooth="yes"/>
      <point x="813" y="936"/>
      <point x="853.0" y="978.0"/>
      <point x="853" y="1019.0" type="qcurve" smooth="yes"/>
      <point x="853" y="1045.0" type="line" smooth="yes"/>
      <point x="853.0" y="1090.0"/>
      <point x="806" y="1131"/>
      <point x="727" y="1128.0" type="qcurve" smooth="yes"/>
      <point x="416" y="1128.0" type="line"/>
      <point x="416" y="1500" type="line"/>
      <point x="963" y="1500" type="line" smooth="yes"/>
      <point x="1170.0" y="1500.0"/>
      <point x="1392" y="1299"/>
      <point x="1392" y="1121" type="qcurve" smooth="yes"/>
      <point x="1392" y="1105" type="line" smooth="yes"/>
      <point x="1392" y="937"/>
      <point x="1192" y="779"/>
      <point x="1068" y="779" type="qcurve"/>
    </contour>
  </outline>
</glyph>
<glyph name="E" format="2">
  <advance width="1260"/>
  <unicode hex="0045"/>
  <outline>
    <contour>
      <point x="105" y="0" type="line"/>
      <point x="105" y="1500" type="line"/>
      <point x="711" y="1500" type="line"/>
      <point x="711" y="0" type="line"/>
    </contour>
    <contour>
      <point x="1110" y="555" type="line"/>
      <point x="430" y="555" type="line"/>
      <point x="430" y="960" type="line"/>
      <point x="1110" y="960" type="line"/>
    </contour>
    <contour>
      <point x="1230" y="1065" type="line"/>
      <point x="430" y="1065" type="line"/>
      <point x="430" y="1500" type="line"/>
      <point x="1230" y="1500" type="line"/>
    </contour>
    <contour>
      <point x="1240" y="0" type="line"/>
      <point x="430" y="0" type="line"/>
      <point x="430" y="425" type="line"/>
      <point x="1240" y="425" type="line"/>
    </contour>
  </outline>
</glyph>
<glyph name="F" format="2">
  <advance width="1105"/>
  <unicode hex="0046"/>
  <outline>
    <contour>
      <point x="104" y="0" type="line"/>
      <point x="104" y="1500" type="line"/>
      <point x="729" y="1500" type="line"/>
      <point x="739" y="0" type="line"/>
    </contour>
    <contour>
      <point x="1035" y="488" type="line"/>
      <point x="444" y="488" type="line"/>
      <point x="444" y="903" type="line"/>
      <point x="1035" y="903" type="line"/>
    </contour>
    <contour>
      <point x="1095" y="1085" type="line"/>
      <point x="444" y="1085" type="line"/>
      <point x="444" y="1500" type="line"/>
      <point x="1095" y="1500" type="line"/>
    </contour>
  </outline>
</glyph>
<glyph name="H" format="2">
  <advance width="1700"/>
  <unicode hex="0048"/>
  <outline>
    <contour>
      <point x="105" y="0" type="line"/>
      <point x="105" y="1500" type="line"/>
      <point x="740" y="1500" type="line"/>
      <point x="740" y="0" type="line"/>
    </contour>
    <contour>
      <point x="960" y="0" type="line"/>
      <point x="960" y="1500" type="line"/>
      <point x="1595" y="1500" type="line"/>
      <point x="1595" y="0" type="line"/>
    </contour>
    <contour>
      <point x="1306" y="560" type="line"/>
      <point x="496" y="560" type="line"/>
      <point x="496" y="1015" type="line"/>
      <point x="1306" y="1015" type="line"/>
    </contour>
  </outline>
</glyph>
<glyph name="I" format="2">
  <advance width="922"/>
  <unicode hex="0049"/>
  <outline>
    <contour>
      <point x="151" y="0" type="line"/>
      <point x="151" y="1500" type="line"/>
      <point x="771" y="1500" type="line"/>
      <point x="771" y="0" type="line"/>
    </contour>
    <contour>
      <point x="844" y="0" type="line"/>
      <point x="80" y="0" type="line"/>
      <point x="80" y="435" type="line"/>
      <point x="844" y="435" type="line"/>
    </contour>
    <contour>
      <point x="844" y="1065" type="line"/>
      <point x="80" y="1065" type="line"/>
      <point x="80" y="1500" type="line"/>
      <point x="844" y="1500" type="line"/>
    </contour>
  </outline>
</glyph>
<glyph name="J" format="2">
  <advance width="1218"/>
  <unicode hex="004A"/>
  <outline>
    <contour>
      <point x="1138" y="500" type="line" smooth="yes"/>
      <point x="1138" y="204"/>
      <point x="821" y="-32"/>
      <point x="583" y="-32" type="qcurve" smooth="yes"/>
      <point x="551" y="-32" type="line" smooth="yes"/>
      <point x="273" y="-32"/>
      <point x="-12" y="156.0"/>
      <point x="-12" y="339" type="qcurve" smooth="yes"/>
      <point x="-12" y="554" type="line"/>
      <point x="414" y="554.0" type="line"/>
      <point x="414" y="431.0" type="line" smooth="yes"/>
      <point x="414" y="405"/>
      <point x="431" y="369"/>
      <point x="456" y="369.0" type="qcurve" smooth="yes"/>
      <point x="470" y="369.0" type="line" smooth="yes"/>
      <point x="499" y="369"/>
      <point x="517.0" y="410"/>
      <point x="517" y="445.0" type="qcurve" smooth="yes"/>
      <point x="517" y="1500.0" type="line"/>
      <point x="1138" y="1500" type="line"/>
    </contour>
  </outline>
</glyph>
<glyph name="N" format="2">
  <advance width="1665"/>
  <unicode hex="004E"/>
  <outline>
    <contour>
      <point x="105" y="0" type="line"/>
      <point x="105" y="1500" type="line"/>
      <point x="676" y="1498" type="line"/>
      <point x="1023" y="925" type="line"/>
      <point x="1023" y="1500" type="line"/>
      <point x="1564" y="1500" type="line"/>
      <point x="1564" y="0" type="line"/>
      <point x="1003" y="0" type="line"/>
      <point x="1003" y="23" type="line"/>
      <point x="666" y="588" type="line"/>
      <point x="666" y="0" type="line"/>
    </contour>
  </outline>
</glyph>
<glyph name="P" format="2">
  <advance width="1400"/>
  <unicode hex="0050"/>
  <outline>
    <contour>
      <point x="103" y="0" type="line"/>
      <point x="103" y="1500" type="line"/>
      <point x="711" y="1500" type="line"/>
      <point x="741" y="0" type="line"/>
    </contour>
    <contour>
      <point x="922" y="355.0" type="qcurve" smooth="yes"/>
      <point x="434.0" y="355" type="line"/>
      <point x="434.0" y="762.0" type="line"/>
      <point x="773" y="762.0" type="line" smooth="yes"/>
      <point x="836.0" y="762.0"/>
      <point x="884" y="829"/>
      <point x="884.0" y="920.0" type="qcurve" smooth="yes"/>
      <point x="884.0" y="929.0" type="line" smooth="yes"/>
      <point x="884" y="1021"/>
      <point x="831.0" y="1085.0"/>
      <point x="784" y="1085.0" type="qcurve" smooth="yes"/>
      <point x="434.0" y="1085.0" type="line"/>
      <point x="434" y="1500" type="line"/>
      <point x="896" y="1500.0" type="line" smooth="yes"/>
      <point x="1127" y="1500"/>
      <point x="1398" y="1211"/>
      <point x="1398" y="960.0" type="qcurve" smooth="yes"/>
      <point x="1398" y="950.0" type="line" smooth="yes"/>
      <point x="1398" y="665"/>
      <point x="1121.0" y="355.0"/>
    </contour>
  </outline>
</glyph>
<glyph name="R" format="2">
  <advance width="1435"/>
  <unicode hex="0052"/>
  <outline>
    <contour>
      <point x="105" y="0" type="line"/>
      <point x="105" y="1500" type="line"/>
      <point x="695" y="1500" type="line"/>
      <point x="695" y="0" type="line"/>
    </contour>
    <contour>
      <point x="824" y="498" type="qcurve" smooth="yes"/>
      <point x="480" y="498" type="line"/>
      <point x="460" y="860" type="line"/>
      <point x="705.0" y="860" type="line" smooth="yes"/>
      <point x="772" y="860"/>
      <point x="842" y="910"/>
      <point x="842.0" y="966" type="qcurve" smooth="yes"/>
      <point x="842.0" y="999" type="line" smooth="yes"/>
      <point x="842" y="1044"/>
      <point x="769.0" y="1097.0"/>
      <point x="713.0" y="1097" type="qcurve" smooth="yes"/>
      <point x="480" y="1097" type="line"/>
      <point x="480" y="1500" type="line"/>
      <point x="921" y="1500" type="line" smooth="yes"/>
      <point x="1132.0" y="1500.0"/>
      <point x="1418" y="1251"/>
      <point x="1418" y="1020" type="qcurve" smooth="yes"/>
      <point x="1418" y="1002" type="line" smooth="yes"/>
      <point x="1418" y="773"/>
      <point x="1067.0" y="498.0"/>
    </contour>
    <contour>
      <point x="1048" y="846" type="line"/>
      <point x="1522" y="0" type="line"/>
      <point x="875" y="0" type="line"/>
      <point x="597" y="624" type="line"/>
    </contour>
  </outline>
</glyph>
<glyph name="S" format="2">
  <advance width="1260"/>
  <unicode hex="0053"/>
  <outline>
    <contour>
      <point x="667.0" y="418" type="line" smooth="yes"/>
      <point x="667.0" y="453"/>
      <point x="611" y="505"/>
      <point x="465" y="565" type="qcurve" smooth="yes"/>
      <point x="210" y="670"/>
      <point x="13" y="871"/>
      <point x="13" y="1058.0" type="qcurve" smooth="yes"/>
      <point x="13" y="1083.0" type="line" smooth="yes"/>
      <point x="13" y="1271"/>
      <point x="324.0" y="1530.0"/>
      <point x="606" y="1530.0" type="qcurve" smooth="yes"/>
      <point x="618" y="1530.0" type="line" smooth="yes"/>
      <point x="908.0" y="1530.0"/>
      <point x="1203.0" y="1313"/>
      <point x="1203" y="1119.0" type="qcurve" smooth="yes"/>
      <point x="1204" y="1066.0" type="line"/>
      <point x="664" y="1066.0" type="line"/>
      <point x="664.0" y="1113" type="line" smooth="yes"/>
      <point x="664" y="1152"/>
      <point x="644" y="1176"/>
      <point x="624.0" y="1176" type="qcurve" smooth="yes"/>
      <point x="609" y="1176.0" type="line" smooth="yes"/>
      <point x="592" y="1176"/>
      <point x="580" y="1162"/>
      <point x="580.0" y="1137" type="qcurve" smooth="yes"/>
      <point x="580.0" y="1113" type="line" smooth="yes"/>
      <point x="580" y="1081"/>
      <point x="650" y="1024"/>
      <point x="800" y="975" type="qcurve" smooth="yes"/>
      <point x="1019" y="903"/>
      <point x="1249.0" y="689"/>
      <point x="1249" y="488.0" type="qcurve" smooth="yes"/>
      <point x="1249" y="464.0" type="line" smooth="yes"/>
      <point x="1249" y="260"/>
      <point x="927.0" y="-33.0"/>
      <point x="639" y="-33.0" type="qcurve" smooth="yes"/>
      <point x="634" y="-33.0" type="line" smooth="yes"/>
      <point x="327" y="-33.0"/>
      <point x="7" y="221"/>
      <point x="12" y="396.0" type="qcurve" smooth="yes"/>
      <point x="12" y="466.0" type="line"/>
      <point x="557.0" y="464.0" type="line"/>
      <point x="557.0" y="431" type="line" smooth="yes"/>
      <point x="557" y="399"/>
      <point x="583" y="354.0"/>
      <point x="615.0" y="354" type="qcurve" smooth="yes"/>
      <point x="619.0" y="354" type="line" smooth="yes"/>
      <point x="643" y="354"/>
      <point x="667.0" y="388"/>
      <point x="667.0" y="413" type="qcurve" smooth="yes"/>
    </contour>
  </outline>
</glyph>
<glyph name="T" format="2">
  <advance width="1188"/>
  <unicode hex="0054"/>
  <outline>
    <contour>
      <point x="288" y="0" type="line"/>
      <point x="288" y="1430" type="line"/>
      <point x="905" y="1430" type="line"/>
      <point x="905" y="0" type="line"/>
    </contour>
    <contour>
      <point x="1184" y="1055" type="line"/>
      <point x="4" y="1055" type="line"/>
      <point x="4" y="1500" type="line"/>
      <point x="1184" y="1500" type="line"/>
    </contour>
  </outline>
</glyph>
<glyph name="V" format="2">
  <advance width="1291"/>
  <unicode hex="0056"/>
  <outline>
    <contour>
      <point x="356" y="0" type="line"/>
      <point x="-70" y="1500" type="line"/>
      <point x="529.0" y="1500" type="line"/>
      <point x="677.0" y="840" type="line"/>
      <point x="836.0" y="1500" type="line"/>
      <point x="1371" y="1500" type="line"/>
      <point x="936" y="0" type="line"/>
    </contour>
  </outline>
</glyph>
<glyph name="W" format="2">
  <advance width="1810"/>
  <unicode hex="0057"/>
  <outline>
    <contour>
      <point x="285" y="0" type="line"/>
      <point x="-60" y="1500" type="line"/>
      <point x="539" y="1500" type="line"/>
      <point x="632" y="907" type="line"/>
      <point x="712" y="1500" type="line"/>
      <point x="1162" y="1500" type="line"/>
      <point x="1247" y="910" type="line"/>
      <point x="1344" y="1500" type="line"/>
      <point x="1870" y="1500" type="line"/>
      <point x="1525" y="0" type="line"/>
      <point x="1044.0" y="0.0" type="line"/>
      <point x="918.0" y="578" type="line"/>
      <point x="892.0" y="578" type="line"/>
      <point x="766.0" y="0.0" type="line"/>
    </contour>
  </outline>
</glyph>
<glyph name="X" format="2">
  <advance width="1344"/>
  <unicode hex="0058"/>
  <outline>
    <contour>
      <point x="-88" y="0" type="line"/>
      <point x="431" y="880" type="line"/>
      <point x="542" y="880" type="line"/>
      <point x="853" y="1500" type="line"/>
      <point x="1403" y="1500" type="line"/>
      <point x="913" y="629" type="line"/>
      <point x="809" y="629" type="line"/>
      <point x="492" y="0" type="line"/>
    </contour>
    <contour>
      <point x="820" y="0" type="line"/>
      <point x="442" y="628" type="line"/>
      <point x="408" y="680" type="line"/>
      <point x="-77" y="1500" type="line"/>
      <point x="534" y="1500" type="line"/>
      <point x="835" y="979" type="line"/>
      <point x="879" y="910" type="line"/>
      <point x="1432" y="0" type="line"/>
    </contour>
  </outline>
</glyph>
<glyph name="bracketright" format="2">
  <advance width="748"/>
  <unicode hex="005D"/>
  <outline>
    <contour>
      <point x="730" y="-280" type="line"/>
      <point x="229" y="-280" type="line"/>
      <point x="229" y="1500" type="line"/>
      <point x="730" y="1500" type="line"/>
    </contour>
    <contour>
      <point x="12" y="-280" type="line"/>
      <point x="12" y="125" type="line"/>
      <point x="399" y="125" type="line"/>
      <point x="399" y="-280" type="line"/>
    </contour>
    <contour>
      <point x="12" y="1095" type="line"/>
      <point x="12" y="1500" type="line"/>
      <point x="404" y="1500" type="line"/>
      <point x="404" y="1095" type="line"/>
    </contour>
  </outline>
</glyph>
<glyph name="g" format="2">
  <advance width="1358"/>
  <unicode hex="0067"/>
  <outline>
    <contour>
      <point x="841" y="795.0" type="qcurve" smooth="yes"/>
      <point x="841" y="282.0" type="line" smooth="yes"/>
      <point x="841.0" y="197.0"/>
      <point x="662" y="15"/>
      <point x="520" y="15.0" type="qcurve" smooth="yes"/>
      <point x="472.0" y="15.0" type="line" smooth="yes"/>
      <point x="267" y="15"/>
      <point x="40" y="254.0"/>
      <point x="40.0" y="526.0" type="qcurve" smooth="yes"/>
      <point x="40.0" y="551.0" type="line" smooth="yes"/>
      <point x="40" y="792.0"/>
      <point x="270" y="1068"/>
      <point x="475.0" y="1068.0" type="qcurve" smooth="yes"/>
      <point x="500" y="1068.0" type="line" smooth="yes"/>
      <point x="643" y="1068"/>
      <point x="841" y="901"/>
    </contour>
    <contour>
      <point x="754" y="617.0" type="line" smooth="yes"/>
      <point x="754" y="707"/>
      <point x="711" y="755.0"/>
      <point x="679" y="755.0" type="qcurve" smooth="yes"/>
      <point x="677" y="755.0" type="line" smooth="yes"/>
      <point x="655" y="755.0"/>
      <point x="603" y="693"/>
      <point x="603.0" y="617.0" type="qcurve" smooth="yes"/>
      <point x="603.0" y="365.0" type="line" smooth="yes"/>
      <point x="603.0" y="293.0"/>
      <point x="646.0" y="257.0"/>
      <point x="677" y="257.0" type="qcurve" smooth="yes"/>
      <point x="679" y="257.0" type="line" smooth="yes"/>
      <point x="710.0" y="257.0"/>
      <point x="754.0" y="291.0"/>
      <point x="754" y="355.0" type="qcurve" smooth="yes"/>
    </contour>
    <contour>
      <point x="208" y="-105.0" type="line"/>
      <point x="253" y="-120.0"/>
      <point x="421" y="-155.0"/>
      <point x="524" y="-155.0" type="qcurve" smooth="yes"/>
      <point x="660" y="-155.0"/>
      <point x="776" y="8"/>
      <point x="776" y="216.0" type="qcurve"/>
      <point x="786" y="1040.0" type="line"/>
      <point x="1293" y="1040.0" type="line"/>
      <point x="1293.0" y="216.0" type="line" smooth="yes"/>
      <point x="1293.0" y="-124.0"/>
      <point x="930" y="-490.0"/>
      <point x="625" y="-490.0" type="qcurve" smooth="yes"/>
      <point x="503" y="-490.0"/>
      <point x="264" y="-458.0"/>
      <point x="210" y="-440.0" type="qcurve"/>
    </contour>
  </outline>
</glyph>
<glyph name="j" format="2">
  <advance width="716"/>
  <unicode hex="006A"/>
  <outline>
    <contour>
      <point x="651" y="136.0" type="line" smooth="yes"/>
      <point x="651.0" y="-221.0"/>
      <point x="350" y="-498"/>
      <point x="136" y="-498" type="qcurve" smooth="yes"/>
      <point x="10" y="-498"/>
      <point x="-145" y="-478.0"/>
      <point x="-173" y="-471.0" type="qcurve"/>
      <point x="-173" y="-111.0" type="line"/>
      <point x="-158" y="-115.0"/>
      <point x="-100" y="-123"/>
      <point x="-54" y="-123.0" type="qcurve" smooth="yes"/>
      <point x="15" y="-123.0"/>
      <point x="102" y="-44"/>
      <point x="102" y="68" type="qcurve" smooth="yes"/>
      <point x="101" y="1002" type="line"/>
      <point x="651" y="1042" type="line"/>
    </contour>
    <contour>
      <point x="399" y="1075" type="line" smooth="yes"/>
      <point x="538" y="1075"/>
      <point x="684" y="1210"/>
      <point x="684" y="1316" type="qcurve" smooth="yes"/>
      <point x="684" y="1331" type="line" smooth="yes"/>
      <point x="684" y="1436"/>
      <point x="541" y="1574"/>
      <point x="399" y="1574" type="qcurve" smooth="yes"/>
      <point x="393" y="1574" type="line" smooth="yes"/>
      <point x="262" y="1574"/>
      <point x="117" y="1436"/>
      <point x="117" y="1331" type="qcurve" smooth="yes"/>
      <point x="117" y="1316" type="line" smooth="yes"/>
      <point x="117" y="1207"/>
      <point x="258" y="1075"/>
      <point x="393" y="1075" type="qcurve" smooth="yes"/>
    </contour>
    <contour>
      <point x="502" y="640" type="line"/>
      <point x="10" y="620" type="line"/>
      <point x="10" y="1022" type="line"/>
      <point x="502" y="1032" type="line"/>
    </contour>
  </outline>
</glyph>
<glyph name="k" format="2">
  <advance width="1386"/>
  <unicode hex="006B"/>
  <outline>
    <contour>
      <point x="106" y="0" type="line"/>
      <point x="106" y="1540" type="line"/>
      <point x="664" y="1540" type="line"/>
      <point x="664" y="0" type="line"/>
    </contour>
    <contour>
      <point x="822" y="477" type="line"/>
      <point x="664" y="374" type="line"/>
      <point x="664" y="750" type="line"/>
      <point x="660" y="784" type="line"/>
      <point x="868" y="1040" type="line"/>
      <point x="1444" y="1040" type="line"/>
      <point x="1027" y="567" type="line"/>
    </contour>
    <contour>
      <point x="891" y="801" type="line"/>
      <point x="1467" y="0" type="line"/>
      <point x="858" y="0" type="line"/>
      <point x="533" y="557" type="line"/>
    </contour>
  </outline>
</glyph>
<glyph name="l" format="2">
  <advance width="747"/>
  <unicode hex="006C"/>
  <outline>
    <contour>
      <point x="48" y="349" type="qcurve" smooth="yes"/>
      <point x="58" y="1539" type="line"/>
      <point x="608" y="1539" type="line"/>
      <point x="608" y="21" type="line"/>
      <point x="326" y="-34"/>
      <point x="47.0" y="161.0"/>
    </contour>
    <contour>
      <point x="739" y="42" type="line"/>
      <point x="529" y="9" type="line"/>
      <point x="222" y="435" type="line"/>
      <point x="739" y="482" type="line"/>
    </contour>
  </outline>
</glyph>
<glyph name="n" format="2">
  <advance width="1365"/>
  <unicode hex="006E"/>
  <outline>
    <contour>
      <point x="65" y="0" type="line"/>
      <point x="65" y="1040" type="line"/>
      <point x="595" y="1040" type="line"/>
      <point x="625" y="0" type="line"/>
    </contour>
    <contour>
      <point x="438" y="500" type="line"/>
      <point x="481" y="677"/>
      <point x="719" y="1080.0"/>
      <point x="930" y="1080.0" type="qcurve" smooth="yes"/>
      <point x="1087" y="1080"/>
      <point x="1310.0" y="879.0"/>
      <point x="1310" y="693" type="qcurve" smooth="yes"/>
      <point x="1310" y="0" type="line"/>
      <point x="749" y="0" type="line"/>
      <point x="749.0" y="628" type="line" smooth="yes"/>
      <point x="749.0" y="647.0"/>
      <point x="727" y="665.0"/>
      <point x="709" y="665.0" type="qcurve" smooth="yes"/>
      <point x="666" y="665"/>
      <point x="542" y="511"/>
      <point x="478" y="379" type="qcurve"/>
    </contour>
  </outline>
</glyph>
<glyph name="q" format="2">
  <advance width="1358"/>
  <unicode hex="0071"/>
  <outline>
    <contour>
      <point x="1293" y="-480" type="line"/>
      <point x="733" y="-480" type="line"/>
      <point x="743" y="1060" type="line"/>
      <point x="1293" y="1060" type="line"/>
    </contour>
    <contour>
      <point x="865.0" y="662.0" type="qcurve" smooth="yes"/>
      <point x="865.0" y="258.0" type="line" smooth="yes"/>
      <point x="865" y="177"/>
      <point x="642.0" y="-25.0"/>
      <point x="482.0" y="-25.0" type="qcurve" smooth="yes"/>
      <point x="476.0" y="-25.0" type="line" smooth="yes"/>
      <point x="271" y="-25"/>
      <point x="34" y="284"/>
      <point x="34.0" y="506.0" type="qcurve" smooth="yes"/>
      <point x="34.0" y="541.0" type="line" smooth="yes"/>
      <point x="34" y="762"/>
      <point x="274" y="1083"/>
      <point x="479.0" y="1083.0" type="qcurve" smooth="yes"/>
      <point x="485.0" y="1083.0" type="line" smooth="yes"/>
      <point x="665.0" y="1083.0"/>
      <point x="865.0" y="785.0"/>
    </contour>
    <contour>
      <point x="740" y="617.0" type="line" smooth="yes"/>
      <point x="740" y="707"/>
      <point x="705" y="755"/>
      <point x="676" y="755.0" type="qcurve" smooth="yes"/>
      <point x="667" y="755.0" type="line" smooth="yes"/>
      <point x="636.0" y="755.0"/>
      <point x="600" y="693"/>
      <point x="600.0" y="617.0" type="qcurve" smooth="yes"/>
      <point x="600.0" y="415.0" type="line" smooth="yes"/>
      <point x="600" y="343"/>
      <point x="632.0" y="287.0"/>
      <point x="667" y="287.0" type="qcurve" smooth="yes"/>
      <point x="676" y="287.0" type="line" smooth="yes"/>
      <point x="712.0" y="287.0"/>
      <point x="740" y="341"/>
      <point x="740" y="415.0" type="qcurve" smooth="yes"/>
    </contour>
  </outline>
</glyph>
<glyph name="s" format="2">
  <advance width="1180"/>
  <unicode hex="0073"/>
  <outline>
    <contour>
      <point x="694.0" y="313" type="line" smooth="yes"/>
      <point x="694" y="331"/>
      <point x="664" y="351"/>
      <point x="364.0" y="430" type="qcurve" smooth="yes"/>
      <point x="196" y="474"/>
      <point x="43" y="635"/>
      <point x="43" y="753" type="qcurve" smooth="yes"/>
      <point x="43" y="769" type="line" smooth="yes"/>
      <point x="43.0" y="893.0"/>
      <point x="323" y="1081.0"/>
      <point x="582.0" y="1081.0" type="qcurve" smooth="yes"/>
      <point x="625.0" y="1081.0" type="line" smooth="yes"/>
      <point x="880" y="1081"/>
      <point x="1113" y="917"/>
      <point x="1124.0" y="776.0" type="qcurve" smooth="yes"/>
      <point x="1128.0" y="708.0" type="line"/>
      <point x="669.0" y="708.0" type="line"/>
      <point x="669.0" y="731.0" type="line" smooth="yes"/>
      <point x="669.0" y="754.0"/>
      <point x="630" y="787.0"/>
      <point x="578" y="787.0" type="qcurve" smooth="yes"/>
      <point x="557" y="787.0" type="line" smooth="yes"/>
      <point x="513.0" y="787.0"/>
      <point x="490" y="770"/>
      <point x="490.0" y="756" type="qcurve" smooth="yes"/>
      <point x="490.0" y="746" type="line" smooth="yes"/>
      <point x="490" y="729"/>
      <point x="596" y="692"/>
      <point x="716" y="666" type="qcurve" smooth="yes"/>
      <point x="920" y="621"/>
      <point x="1136" y="474"/>
      <point x="1136.0" y="342.0" type="qcurve" smooth="yes"/>
      <point x="1136.0" y="321.0" type="line" smooth="yes"/>
      <point x="1136" y="152"/>
      <point x="868.0" y="-26.0"/>
      <point x="601.0" y="-26.0" type="qcurve" smooth="yes"/>
      <point x="598.0" y="-26.0" type="line" smooth="yes"/>
      <point x="317.0" y="-26"/>
      <point x="61.0" y="162"/>
      <point x="58.0" y="280.0" type="qcurve" smooth="yes"/>
      <point x="55.0" y="351.0" type="line"/>
      <point x="478.0" y="353.0" type="line"/>
      <point x="478.0" y="327.0" type="line" smooth="yes"/>
      <point x="478" y="296"/>
      <point x="540" y="261"/>
      <point x="591" y="261.0" type="qcurve" smooth="yes"/>
      <point x="602" y="261.0" type="line" smooth="yes"/>
      <point x="647" y="261"/>
      <point x="694" y="289"/>
      <point x="694.0" y="309" type="qcurve" smooth="yes"/>
    </contour>
  </outline>
</glyph>
<glyph name="t" format="2">
  <advance width="787"/>
  <unicode hex="0074"/>
  <outline>
    <contour>
      <point x="742" y="655" type="line"/>
      <point x="-3" y="655" type="line"/>
      <point x="-3" y="1037" type="line"/>
      <point x="742" y="1037" type="line"/>
    </contour>
    <contour>
      <point x="621.0" y="431" type="line" smooth="yes"/>
      <point x="621.0" y="393.0"/>
      <point x="666.0" y="348.0"/>
      <point x="673.0" y="348" type="qcurve" smooth="yes"/>
      <point x="699" y="348"/>
      <point x="744.0" y="367"/>
      <point x="740.0" y="365" type="qcurve"/>
      <point x="818.0" y="59" type="line"/>
      <point x="764.0" y="29"/>
      <point x="605.0" y="-22"/>
      <point x="455" y="-22" type="qcurve"/>
      <point x="281.0" y="-22"/>
      <point x="76" y="206.0"/>
      <point x="77.0" y="373" type="qcurve" smooth="yes"/>
      <point x="77" y="1259" type="line"/>
      <point x="621" y="1259" type="line"/>
    </contour>
  </outline>
</glyph>
<glyph name="v" format="2">
  <advance width="1093"/>
  <unicode hex="0076"/>
  <outline>
    <contour>
      <point x="281" y="1" type="line"/>
      <point x="-80" y="1041" type="line"/>
      <point x="455" y="1041" type="line"/>
      <point x="561" y="614" type="line"/>
      <point x="650" y="1041" type="line"/>
      <point x="1173" y="1041" type="line"/>
      <point x="818" y="1" type="line"/>
    </contour>
  </outline>
</glyph>
<glyph name="x" format="2">
  <advance width="1000"/>
  <unicode hex="0078"/>
  <outline>
    <contour>
      <point x="-60" y="1" type="line"/>
      <point x="638" y="1041" type="line"/>
      <point x="1065" y="1041" type="line"/>
      <point x="367" y="1" type="line"/>
    </contour>
    <contour>
      <point x="549" y="1" type="line"/>
      <point x="-78" y="1041" type="line"/>
      <point x="449" y="1041" type="line"/>
      <point x="1085" y="1" type="line"/>
    </contour>
  </outline>
</glyph>
<glyph name="braceleft" format="2">
  <advance width="748"/>
  <unicode hex="007B"/>
  <outline>
    <contour>
      <point x="30.0" y="408" type="line"/>
      <point x="140" y="408"/>
      <point x="179" y="391.0"/>
      <point x="179" y="360.0" type="qcurve" smooth="yes"/>
      <point x="179" y="334.0"/>
      <point x="147" y="275.0"/>
      <point x="126" y="239.0" type="qcurve" smooth="yes"/>
      <point x="103" y="202.0"/>
      <point x="47.0" y="96.0"/>
      <point x="47.0" y="-38.0" type="qcurve" smooth="yes"/>
      <point x="47.0" y="-137.0"/>
      <point x="252.0" y="-356"/>
      <point x="482.0" y="-439" type="qcurve"/>
      <point x="757" y="-135" type="line"/>
      <point x="659" y="-88"/>
      <point x="548" y="-5.0"/>
      <point x="548" y="22.0" type="qcurve" smooth="yes"/>
      <point x="548" y="89.0"/>
      <point x="599" y="193.0"/>
      <point x="619" y="235.0" type="qcurve" smooth="yes"/>
      <point x="642" y="284.0"/>
      <point x="679" y="376.0"/>
      <point x="679" y="442.0" type="qcurve" smooth="yes"/>
      <point x="679" y="486.0"/>
      <point x="554" y="585"/>
      <point x="446" y="611" type="qcurve"/>
      <point x="554" y="637"/>
      <point x="679" y="736.0"/>
      <point x="679" y="770.0" type="qcurve" smooth="yes"/>
      <point x="679" y="830.0"/>
      <point x="645" y="910"/>
      <point x="619" y="950.0" type="qcurve" smooth="yes"/>
      <point x="595" y="986.0"/>
      <point x="528" y="1087"/>
      <point x="528" y="1154.0" type="qcurve" smooth="yes"/>
      <point x="528" y="1187.0"/>
      <point x="638" y="1245.0"/>
      <point x="773" y="1285.0" type="qcurve"/>
      <point x="516" y="1552" type="line"/>
      <point x="330" y="1515"/>
      <point x="44" y="1349.0"/>
      <point x="44" y="1279.0" type="qcurve" smooth="yes"/>
      <point x="44" y="1169.0"/>
      <point x="100" y="1049.0"/>
      <point x="123" y="1005.0" type="qcurve" smooth="yes"/>
      <point x="145" y="963.0"/>
      <point x="177" y="894.0"/>
      <point x="177.0" y="864.0" type="qcurve" smooth="yes"/>
      <point x="177" y="827.0"/>
      <point x="134" y="815"/>
      <point x="27" y="815" type="qcurve"/>
    </contour>
  </outline>
</glyph>
<glyph name="bar" format="2">
  <advance width="730"/>
  <unicode hex="007C"/>
  <outline>
    <contour>
      <point x="110" y="-500" type="line"/>
      <point x="110" y="1500" type="line"/>
      <point x="620" y="1500" type="line"/>
      <point x="620" y="-500" type="line"/>
    </contour>
  </outline>
</glyph>
<glyph name="asciitilde" format="2">
  <advance width="1500"/>
  <unicode hex="007E"/>
  <outline>
    <contour>
      <point x="790" y="1004.0" type="qcurve" smooth="yes"/>
      <point x="726" y="1052.0"/>
      <point x="609" y="1105.0"/>
      <point x="503" y="1105.0" type="qcurve" smooth="yes"/>
      <point x="385.0" y="1105.0"/>
      <point x="159" y="866.0"/>
      <point x="120" y="691.0" type="qcurve"/>
      <point x="387" y="486.0" type="line"/>
      <point x="406" y="556.0"/>
      <point x="487" y="620"/>
      <point x="548" y="620.0" type="qcurve"/>
      <point x="608" y="620"/>
      <point x="678" y="584"/>
      <point x="719" y="554.0" type="qcurve" smooth="yes"/>
      <point x="777" y="510"/>
      <point x="903" y="446.0"/>
      <point x="1018" y="446.0" type="qcurve" smooth="yes"/>
      <point x="1158" y="446.0"/>
      <point x="1385" y="673.0"/>
      <point x="1418" y="833.0" type="qcurve"/>
      <point x="1149" y="1062.0" type="line"/>
      <point x="1125" y="999.0"/>
      <point x="1030" y="931.0"/>
      <point x="970" y="931.0" type="qcurve" smooth="yes"/>
      <point x="909" y="931"/>
      <point x="839" y="968"/>
    </contour>
  </outline>
</glyph>
